<?xml version="1.0" standalone="no"?>
<!DOCTYPE svg PUBLIC "-//W3C//DTD SVG 20010904//EN"
 "http://www.w3.org/TR/2001/REC-SVG-20010904/DTD/svg10.dtd">
<svg version="1.0" xmlns="http://www.w3.org/2000/svg"
 width="2000.000000pt" height="1500.000000pt" viewBox="500.0000 200.0000 1000.000000 1000.000000"
 preserveAspectRatio="xMidYMid meet">

<g transform="translate(0.000000,1500.000000) scale(0.100000,-0.100000)"
fill="#ffffff" stroke="none">
<path d="M9695 11961 c-270 -103 -447 -186 -564 -264 -46 -32 -85 -57 -86 -57
0 0 2 33 7 72 11 108 -3 139 -55 119 -12 -5 -74 -57 -136 -115 -63 -59 -134
-119 -158 -132 -40 -24 -48 -25 -127 -19 -101 9 -165 -4 -251 -49 -112 -59
-230 -192 -264 -297 -11 -33 -16 -37 -59 -43 -26 -3 -94 -1 -152 5 -120 13
-204 8 -246 -14 -97 -51 -826 -753 -869 -837 -12 -25 -35 -81 -50 -125 -15
-44 -36 -96 -45 -115 -30 -59 -158 -198 -327 -353 -280 -256 -370 -364 -465
-552 -101 -200 -155 -411 -228 -890 -22 -148 -47 -304 -55 -345 l-14 -76 89
-177 c144 -289 231 -531 279 -781 26 -134 26 -151 0 -177 -17 -17 -29 -20 -60
-16 l-39 5 0 -106 c0 -208 0 -206 270 -817 192 -433 306 -713 366 -898 32 -98
42 -117 59 -117 31 0 82 -36 109 -77 16 -25 36 -85 55 -170 74 -328 224 -537
450 -624 47 -19 85 -23 246 -29 223 -9 257 -18 369 -103 137 -105 273 -155
437 -162 l95 -4 245 -127 c263 -136 352 -186 441 -246 60 -40 107 -49 128 -23
23 28 30 16 30 -50 0 -36 3 -65 8 -65 4 0 79 9 167 19 482 58 856 50 1130 -23
69 -19 86 -20 125 -10 123 33 247 9 418 -82 117 -62 186 -78 215 -49 17 16 16
27 0 71 -11 30 336 126 400 110 16 -3 45 -31 73 -67 45 -58 95 -99 122 -99 8
0 12 23 12 80 0 104 15 135 73 151 26 7 72 9 121 5 l79 -7 -7 58 c-11 105 -5
116 178 307 91 95 190 190 220 211 l55 37 63 -67 c35 -37 64 -71 66 -76 2 -5
8 -9 14 -9 17 0 1 84 -26 137 -13 27 -38 62 -56 78 -44 41 -63 80 -47 93 6 5
50 22 96 37 98 32 161 31 211 -5 l32 -23 -17 32 c-40 77 3 112 148 121 72 5
111 12 129 24 34 22 64 86 73 154 6 49 15 63 109 175 249 298 412 549 573 884
75 155 216 493 206 493 -3 0 -34 -23 -69 -51 -85 -67 -174 -166 -241 -267 -30
-45 -64 -87 -75 -93 -20 -11 -57 -9 -88 5 -12 4 -21 -13 -42 -77 l-27 -82 2
63 c2 34 1 62 -2 62 -3 0 -58 -41 -121 -91 -493 -390 -1370 -1017 -1568 -1120
-91 -49 -155 -34 -199 45 -10 17 -15 15 -72 -33 -37 -30 -72 -51 -86 -51 -30
0 -49 33 -41 72 l6 29 -82 -3 -82 -3 -24 -49 c-24 -49 -25 -49 -41 -29 -9 11
-21 29 -27 39 -17 27 -23 16 -38 -67 -8 -41 -14 -64 -15 -53 -3 57 -53 51 -86
-10 l-19 -35 -42 62 c-43 65 -117 142 -96 101 18 -35 31 -107 23 -122 -7 -12
-12 -10 -29 8 l-20 22 -7 -66 c-4 -36 -11 -66 -16 -66 -5 0 -38 -27 -73 -59
-53 -49 -71 -60 -107 -64 -244 -29 -330 -41 -432 -64 l-118 -26 -161 37 c-209
49 -521 100 -723 120 -88 9 -209 21 -270 27 -207 21 -408 87 -608 201 -89 51
-105 63 -90 71 38 20 83 72 89 103 9 46 -3 60 -26 31 -23 -30 -54 -42 -145
-61 l-70 -15 -130 127 c-71 70 -258 247 -415 392 -475 441 -830 800 -954 964
-46 61 -116 205 -186 381 -65 163 -131 315 -137 315 -3 0 -16 -9 -30 -20 -35
-27 -47 -25 -77 10 -38 46 -54 106 -35 138 22 39 43 48 79 35 23 -9 30 -9 30
1 0 7 -20 154 -45 327 -29 199 -44 329 -40 356 3 23 25 81 49 130 24 48 48
104 54 123 7 19 39 283 72 585 33 303 72 606 86 674 82 409 290 802 608 1153
190 210 694 684 797 751 84 54 672 399 784 459 228 124 444 211 651 264 215
54 312 65 609 70 252 5 273 7 315 27 69 34 90 83 90 215 l0 104 -30 -7 c-50
-11 -85 3 -167 67 -68 53 -151 100 -171 97 -4 0 -110 -40 -237 -88z m-3392
-5723 c14 -18 46 -82 72 -141 26 -60 56 -125 67 -144 l21 -35 -39 20 c-62 32
-83 62 -95 131 -5 35 -25 94 -45 132 -25 51 -31 69 -20 69 8 0 26 -15 39 -32z
m-101 -64 c14 -43 27 -85 27 -92 1 -8 -20 12 -46 45 -26 32 -51 60 -55 61 -25
11 10 78 36 69 6 -2 23 -39 38 -83z"/>
<path d="M11272 11751 l-104 -6 -37 -41 c-21 -22 -40 -46 -42 -53 -4 -12 -9
-12 -29 0 -18 10 -59 14 -148 12 -104 -1 -130 -5 -168 -23 -81 -40 -119 -126
-94 -217 10 -37 28 -63 79 -113 119 -117 296 -189 519 -211 134 -13 134 -13
402 -177 206 -126 480 -312 845 -573 555 -398 503 -364 561 -364 39 1 72 11
138 43 49 23 89 42 89 42 1 0 3 -44 3 -98 1 -56 8 -124 18 -162 20 -72 97
-283 121 -331 25 -47 83 -107 146 -150 76 -51 134 -119 160 -188 29 -76 31
-200 4 -300 l-20 -74 49 -91 c100 -187 213 -333 339 -433 22 -18 27 -29 27
-67 0 -109 52 -149 111 -85 16 17 29 27 29 22 0 -5 -7 -63 -15 -128 -24 -184
-30 -368 -15 -453 6 -40 13 -72 15 -70 2 2 10 77 20 168 28 276 71 499 133
683 16 48 26 87 22 87 -17 0 -62 -45 -86 -86 -24 -41 -50 -64 -72 -64 -5 0
-12 89 -15 198 -8 223 -12 267 -64 692 l-37 305 -455 728 c-490 786 -515 821
-698 980 -242 211 -510 367 -827 482 -318 114 -501 138 -904 116z"/>
<path d="M9108 9512 c-153 -268 -291 -510 -307 -538 l-29 -50 303 -535 302
-534 615 -3 615 -2 302 530 c165 291 302 534 304 538 1 5 -135 250 -302 545
l-304 537 -611 0 -611 0 -277 -488z m1367 423 c-100 -38 -880 -285 -891 -283
-11 2 -144 265 -144 285 0 1 235 3 523 2 287 0 518 -2 512 -4z m-987 -236 l40
-86 -271 -259 c-148 -142 -295 -281 -326 -309 -53 -48 -55 -49 -34 -15 11 19
125 220 253 445 128 226 235 414 238 420 3 5 18 -17 33 -50 15 -33 45 -99 67
-146z m1175 -290 c49 -270 87 -492 85 -493 -6 -5 -1099 672 -1100 681 -1 4 9
12 23 16 188 64 878 286 889 286 13 1 32 -92 103 -490z m232 -33 c130 -230
235 -419 233 -421 -6 -5 -281 -65 -299 -65 -11 0 -19 5 -19 11 0 12 -147 841
-156 879 -3 14 -3 23 -1 20 3 -3 111 -193 242 -424z m-728 -173 c498 -306 563
-348 547 -360 -9 -7 -126 -74 -258 -149 -133 -76 -382 -217 -553 -315 l-313
-178 0 675 c0 371 3 674 6 674 4 0 261 -156 571 -347z m-639 -641 l-3 -330
-320 333 c-176 183 -320 338 -320 344 0 6 144 150 320 319 l320 308 3 -322 c1
-177 1 -471 0 -652z m1501 146 c-60 -106 -175 -311 -256 -455 -82 -144 -149
-260 -151 -259 -3 3 189 829 194 835 2 2 289 66 316 70 4 1 -43 -86 -103 -191z
m-285 65 c-2 -10 -47 -200 -98 -421 -52 -222 -97 -406 -100 -409 -3 -3 -208
45 -456 107 l-451 113 548 313 c301 172 551 314 555 314 3 0 4 -8 2 -17z
m-1486 -346 c141 -147 258 -271 260 -276 2 -5 -25 -54 -59 -110 -54 -91 -63
-100 -73 -84 -7 10 -104 180 -216 378 -111 198 -212 376 -223 395 l-20 35 37
-35 c21 -19 153 -155 294 -303z m751 -413 c229 -58 418 -107 420 -110 2 -2
-219 -4 -492 -4 l-496 0 66 110 c36 61 70 110 76 110 6 0 198 -48 426 -106z"/>
<path d="M8022 7503 l3 -68 115 -25 115 -25 3 -741 2 -741 -102 -22 c-57 -12
-111 -25 -120 -27 -15 -4 -18 -17 -18 -75 l0 -69 740 0 740 0 0 315 0 315 -94
0 c-82 0 -95 -2 -100 -17 -2 -10 -21 -103 -41 -208 -20 -104 -38 -198 -41
-207 -5 -17 -29 -18 -330 -18 l-324 0 2 747 3 747 130 26 130 26 3 67 3 67
-411 0 -411 0 3 -67z"/>
<path d="M9682 7504 l3 -66 105 -27 105 -26 3 -741 2 -740 -110 -29 -111 -28
3 -66 3 -66 313 -3 312 -2 0 69 0 70 -67 20 c-38 11 -80 23 -95 27 l-28 6 1
732 c0 543 3 723 12 701 6 -16 115 -388 242 -825 l232 -795 174 0 174 0 241
818 c132 449 244 820 248 824 3 3 5 -322 4 -722 l-3 -729 -92 -29 -93 -28 0
-70 0 -69 355 0 355 0 0 70 0 69 -37 10 c-21 6 -68 17 -105 27 l-68 16 0 742
0 741 103 25 102 25 3 68 3 67 -328 0 -328 0 -239 -787 c-131 -434 -242 -795
-246 -802 -6 -11 -11 -3 -20 25 -6 21 -111 381 -233 799 l-222 760 -338 3
-338 2 3 -66z"/>
<path d="M9306 5421 c-21 -23 -20 -34 5 -49 18 -11 24 -11 40 4 25 22 24 28
-5 47 -22 15 -25 15 -40 -2z"/>
<path d="M8750 5376 l0 -43 -45 -5 c-25 -3 -56 -13 -71 -23 -53 -35 -68 -131
-27 -178 28 -31 80 -49 117 -41 17 4 38 7 47 5 29 -4 34 23 31 177 l-3 152
-25 0 c-22 0 -24 -4 -24 -44z m-5 -171 l0 -60 -33 -3 c-43 -4 -72 21 -72 61 0
44 26 69 69 65 l36 -3 0 -60z"/>
<path d="M9560 5375 c0 -44 -1 -45 -31 -45 -76 0 -132 -56 -131 -133 1 -66 42
-108 105 -109 101 0 133 16 116 59 -5 13 -9 80 -9 149 l0 124 -25 0 c-23 0
-25 -4 -25 -45z m0 -170 l0 -65 -39 0 c-30 0 -44 6 -55 22 -37 52 -8 108 56
108 l38 0 0 -65z"/>
<path d="M10910 5255 l0 -165 30 0 30 0 0 165 0 165 -30 0 -30 0 0 -165z"/>
<path d="M8076 5253 c-27 -76 -51 -144 -54 -150 -3 -9 6 -13 27 -13 27 0 34 5
42 30 10 28 14 30 64 30 51 0 54 -1 60 -30 6 -26 11 -30 42 -30 19 0 33 4 31
9 -1 5 -25 72 -53 150 -49 139 -50 141 -80 141 -30 0 -31 -2 -79 -137z m103
-30 c1 -8 -11 -13 -28 -13 -29 0 -29 0 -19 38 6 20 13 41 16 46 5 10 30 -46
31 -71z"/>
<path d="M9840 5240 l0 -150 26 -6 c14 -4 46 -4 71 0 100 13 147 69 140 168
-6 94 -61 138 -172 138 l-65 0 0 -150z m153 72 c23 -24 32 -88 18 -125 -7 -17
-24 -34 -45 -42 -60 -25 -66 -16 -66 97 l0 101 37 -6 c20 -4 45 -15 56 -25z"/>
<path d="M8411 5321 c-8 -5 -29 -7 -48 -4 l-33 6 0 -117 0 -116 28 0 27 0 -3
79 c-3 76 -2 80 22 96 19 13 29 14 45 5 19 -9 21 -20 21 -95 l0 -85 30 0 30 0
0 91 c0 87 -1 92 -29 120 -29 29 -64 37 -90 20z"/>
<path d="M8936 5323 c-4 -4 -23 -6 -42 -4 l-34 3 0 -116 0 -116 30 0 30 0 0
85 c0 89 10 108 51 98 16 -4 19 0 19 26 0 26 -4 31 -23 31 -13 0 -27 -3 -31
-7z"/>
<path d="M9073 5315 c-42 -18 -66 -57 -67 -110 -2 -83 72 -137 156 -115 50 14
78 57 78 120 0 52 -18 83 -60 105 -36 18 -65 18 -107 0z m88 -54 c16 -13 23
-29 23 -55 0 -43 -22 -68 -60 -68 -69 0 -88 112 -24 135 26 10 37 7 61 -12z"/>
<path d="M10203 5315 c-39 -17 -73 -68 -73 -110 0 -36 31 -89 61 -106 25 -13
119 -16 138 -5 6 4 11 18 11 30 0 22 -3 23 -50 18 -36 -3 -57 0 -75 12 -43 28
-29 36 60 36 l85 0 0 30 c0 87 -73 132 -157 95z m91 -57 c15 -24 5 -30 -53
-26 l-52 3 17 23 c19 27 71 27 88 0z"/>
<path d="M10705 5316 c-70 -31 -91 -133 -39 -187 37 -38 91 -53 144 -39 32 9
40 15 40 34 0 21 -3 22 -55 18 -44 -4 -60 -1 -75 13 -11 10 -20 22 -20 27 0 4
36 8 80 8 87 0 98 7 86 55 -17 67 -95 102 -161 71z m93 -63 c14 -23 14 -23
-42 -23 -58 0 -67 8 -40 35 22 22 63 15 82 -12z"/>
<path d="M11083 5316 c-61 -28 -85 -135 -42 -189 28 -36 86 -51 134 -35 54 18
80 58 79 119 0 42 -5 55 -31 80 -36 36 -92 46 -140 25z m92 -61 c30 -29 32
-64 7 -95 -37 -46 -112 -15 -112 47 0 27 41 73 65 73 9 0 27 -11 40 -25z"/>
<path d="M11386 5323 c-4 -4 -22 -6 -41 -5 l-35 3 0 -161 0 -160 25 0 c23 0
25 4 25 43 l0 44 44 -1 c57 -1 96 27 115 81 20 57 3 116 -42 143 -32 20 -77
26 -91 13z m64 -63 c51 -51 -1 -144 -68 -119 -19 7 -22 16 -22 63 0 42 4 57
18 65 26 16 50 13 72 -9z"/>
<path d="M11633 5315 c-87 -37 -94 -168 -11 -211 46 -24 126 -24 144 1 27 36
18 43 -45 38 -52 -5 -61 -3 -82 18 l-24 24 88 3 c99 3 106 9 87 67 -21 64 -89
90 -157 60z m85 -47 c26 -26 13 -38 -38 -38 -37 0 -50 4 -50 15 0 29 64 47 88
23z"/>
<path d="M11916 5323 c-4 -4 -23 -6 -42 -4 l-34 3 0 -116 0 -116 30 0 30 0 0
85 c0 89 10 108 51 98 16 -4 19 0 19 26 0 26 -4 31 -23 31 -13 0 -27 -3 -31
-7z"/>
<path d="M9290 5205 l0 -115 28 0 27 0 -3 115 c-3 114 -3 115 -28 115 l-24 0
0 -115z"/>
<path d="M10399 5273 c75 -191 72 -184 100 -181 22 3 30 15 67 108 24 58 43
109 43 113 1 5 -13 7 -31 5 -29 -3 -33 -8 -52 -65 -12 -34 -24 -65 -28 -68 -3
-4 -17 25 -29 64 -22 69 -24 71 -56 71 l-33 0 19 -47z"/>
</g>
</svg>
