<?xml version="1.0" standalone="no"?>
<!DOCTYPE svg PUBLIC "-//W3C//DTD SVG 20010904//EN"
 "http://www.w3.org/TR/2001/REC-SVG-20010904/DTD/svg10.dtd">
<svg version="1.0" xmlns="http://www.w3.org/2000/svg"
 width="200.000000pt" height="200.000000pt" viewBox="0 0 200.000000 200.000000"
 preserveAspectRatio="xMidYMid meet">

<g transform="translate(0.000000,200.000000) scale(0.100000,-0.100000)"
fill="#000000" stroke="none">
<path d="M170 1050 l0 -550 50 0 50 0 0 -50 0 -50 780 0 780 0 0 550 0 550
-50 0 -50 0 0 50 0 50 -780 0 -780 0 0 -550z m1540 0 l0 -520 -760 0 -760 0 0
520 0 520 760 0 760 0 0 -520z"/>
<path d="M860 1046 l0 -347 43 3 42 4 5 203 5 204 35 -50 c19 -28 71 -101 115
-162 l80 -111 25 29 c14 16 68 93 120 170 52 77 99 141 103 141 4 0 5 -16 1
-35 -3 -20 -3 -114 1 -209 l7 -174 38 -4 37 -3 5 225 c3 124 2 276 -1 339 l-6
114 -159 -222 c-87 -121 -162 -221 -165 -221 -3 0 -46 58 -96 128 -49 70 -122
172 -162 226 l-73 99 0 -347z"/>
<path d="M380 1041 l0 -328 77 -7 c42 -3 138 -6 215 -6 l138 0 0 45 0 45 -137
2 c-76 1 -153 1 -170 -1 l-33 -2 0 291 0 290 -45 0 -45 0 0 -329z"/>
</g>
</svg>
